<svg xmlns="http://www.w3.org/2000/svg" width="100" height="100" fill="none"><rect width="100" height="100" fill="#EEE" rx="10"/><path fill="#111" d="M10 37.321c0-1.437.077-2.674.232-3.693s.421-1.9.808-2.649.826-1.42 1.333-2.012q.748-.9 1.908-1.864 2.31-1.937 5.777-3.023c2.313-.723 4.815-1.08 7.514-1.08 2.7 0 5.201.357 7.514 1.08 2.312.723 4.238 1.725 5.777 3.023a20 20 0 0 1 1.96 1.864 9.4 9.4 0 0 1 1.384 2.012q.58 1.123.748 2.648c.112 1.02.172 2.248.172 3.694a65 65 0 0 1-.112 4.025c-.077 1.097-.31 2.064-.696 2.909-.387.845-.98 1.603-1.788 2.274-.808.67-1.909 1.376-3.293 2.125 1.384.697 2.485 1.394 3.293 2.09a6.4 6.4 0 0 1 1.788 2.466c.387.94.619 2.1.696 3.467.078 1.368.112 3.049.112 5.035 0 1.638-.06 2.997-.172 4.068a17 17 0 0 1-.516 2.796q-.348 1.19-.98 2.013c-.421.548-.946 1.115-1.556 1.716-1.307 1.289-3.164 2.395-5.545 3.319-2.39.923-5.313 1.376-8.777 1.376-3.465 0-6.396-.462-8.786-1.376q-3.586-1.386-5.545-3.32a16 16 0 0 1-1.556-1.715q-.633-.824-.98-2.013-.35-1.188-.516-2.796c-.112-1.071-.172-2.422-.172-4.068 0-1.986.034-3.667.112-5.035q.115-2.054.696-3.467a6.5 6.5 0 0 1 1.788-2.465c.808-.697 1.909-1.394 3.293-2.09-1.384-.75-2.485-1.456-3.293-2.126-.808-.671-1.41-1.429-1.788-2.274-.387-.845-.62-1.812-.696-2.91-.078-1.088-.112-2.439-.112-4.024zm23.34-2.98c0-1.044-.575-1.924-1.736-2.647-1.152-.723-2.502-1.08-4.04-1.08-1.54 0-2.89.365-4.041 1.08-1.152.723-1.737 1.603-1.737 2.648v7.753c0 1.045.576 1.925 1.737 2.648 1.152.723 2.502 1.08 4.04 1.08 1.54 0 2.889-.357 4.041-1.08s1.737-1.603 1.737-2.648zm0 20.881c0-1.045-.575-1.925-1.736-2.648-1.152-.723-2.502-1.08-4.04-1.08-1.54 0-2.89.366-4.041 1.08-1.152.723-1.737 1.603-1.737 2.648v10.445c0 1.045.576 1.925 1.737 2.648 1.152.723 2.502 1.08 4.04 1.08 1.54 0 2.889-.357 4.041-1.08s1.737-1.603 1.737-2.648zm40.208 21.325v-7.91h-23.46v-7.16l16.987-38.033h12.483L61.882 61.477h11.666v-15.14h11.787v15.14H91v7.16h-5.665v7.91z"/></svg>